{"title":"Circle Of Fury 2010 DvDRip.H264.Feel-Free","uid":5840418,"size":1192266836,"categoryP":"video","categoryS":"movies","magnet":"?xt=urn:btih:8a2cf29249deeb5c26d7e2a1f1726a7be59fe7b7&amp;dn=Circle+Of+Fury+2010+DvDRip.H264.Feel-Free&amp;tr=udp%3A%2F%2Ftracker.openbittorrent.com%3A80&amp;tr=udp%3A%2F%2Fopen.demonii.com%3A1337&amp;tr=udp%3A%2F%2Ftracker.coppersurfer.tk%3A6969&amp;tr=udp%3A%2F%2Fexodus.desync.com%3A6969","seeders":0,"leechers":0,"uploader":"neon","files":-1,"time":1284931163,"description":"Genre:Action\nLanguage:English\n &lt;a href=&quot; http://www.imdb.com/title/tt1587406/&quot; rel=&quot;nofollow&quot; target=&quot;_NEW&quot;&gt; http://www.imdb.com/title/tt1587406/&lt;/a&gt;\n\nPlot : Back from Iraq, Johnny Brown discovers that a new war is taking place in the streets of New York. In an attempt to get kids off the streets and instill the discipline he has learned in the Marine Corps, Brown launches a school for Mixed Martial Arts. But when a group of drug pushers try to use his school as a drug laundering business, an all out brawl occurs; pitting Brown against his childhood friend, who is now pursuing a life of crime. \n\nGeneral\nComplete name :Circle.Of.Fury.2010.DvDRip.H264.Feel-Free\nFormat : MPEG-4\nFormat profile : Base Media\nCodec ID : isom\nFile size : 1.11 GiB\nDuration : 1h 30mn\nOverall bit rate : 1 751 Kbps\nVideo #1\nID : 1\nFormat : AVC\nFormat/Info : Advanced Video Codec\nFormat profile : &lt;a class=&quot;__cf_email__&quot; href=&quot;/cdn-cgi/l/email-protection&quot; data-cfemail=&quot;72301301171e1b1c17323e475c43&quot;&gt;[email&amp;#160;protected]&lt;/a&gt;&lt;script data-cfhash='f9e31' type=&quot;text/javascript&quot;&gt;\n/* &lt;![CDATA[ */!function(){try{var t=&quot;currentScript&quot;in document?document.currentScript:function(){for(var t=document.getElementsByTagName(&quot;script&quot;),e=t.length;e--;)if(t[e].getAttribute(&quot;data-cfhash&quot;))return t[e]}();if(t&amp;&amp;t.previousSibling){var e,r,n,i,c=t.previousSibling,a=c.getAttribute(&quot;data-cfemail&quot;);if(a){for(e=&quot;&quot;,r=parseInt(a.substr(0,2),16),n=2;a.length-n;n+=2)i=parseInt(a.substr(n,2),16)^r,e+=String.fromCharCode(i);e=document.createTextNode(e),c.parentNode.replaceChild(e,c)}t.parentNode.removeChild(t);}}catch(u){}}()/* ]]&gt; */&lt;/script&gt;\nFormat settings, CABAC : No\nFormat settings, ReFrames : 1 frame\nCodec ID : avc1\nCodec ID/Info : Advanced Video Coding\nDuration : 1h 30mn\nBit rate mode : Variable\nBit rate : 1 513 Kbps\nWidth : 652 pixels\nHeight : 352 pixels\nDisplay aspect ratio : 1.852\nFrame rate mode : Constant\nFrame rate : 23.976 fps\nResolution : 24 bits\nColorimetry : 4:2:0\nScan type : Progressive\nBits/(Pixel*Frame) : 0.275\nStream size : 982 MiB (86%)\nAudio #2\nID : 2\nFormat : AAC\nFormat/Info : Advanced Audio Codec\nFormat version : Version 4\nFormat profile : LC\nFormat settings, SBR : No\nCodec ID : 40\nDuration : 1h 30mn\nBit rate mode : Variable\nBit rate : 256 Kbps\nChannel(s) : 6 channels\nChannel positions : Front: L C R, Rear: L R, LFE\nSampling rate : 48.0 KHz\nResolution : 16 bits\nStream size : 152 MiB (13%)","torrent":{"xt":"urn:btih:8a2cf29249deeb5c26d7e2a1f1726a7be59fe7b7","amp;dn":"Circle+Of+Fury+2010+DvDRip.H264.Feel-Free","amp;tr":["udp%3A%2F%2Ftracker.openbittorrent.com%3A80","udp%3A%2F%2Fopen.demonii.com%3A1337","udp%3A%2F%2Ftracker.coppersurfer.tk%3A6969","udp%3A%2F%2Fexodus.desync.com%3A6969"],"infoHash":"8a2cf29249deeb5c26d7e2a1f1726a7be59fe7b7","infoHashBuffer":{"type":"Buffer","data":[138,44,242,146,73,222,235,92,38,215,226,161,241,114,106,123,229,159,231,183]},"announce":[],"urlList":[]}}